<?xml version="1.0" encoding="iso-8859-1"?>
<!-- Uploaded to: SVG Repo, www.svgrepo.com, Generator: SVG Repo Mixer Tools -->
<!DOCTYPE svg PUBLIC "-//W3C//DTD SVG 1.1//EN" "http://www.w3.org/Graphics/SVG/1.1/DTD/svg11.dtd">
<svg fill="#000000" version="1.1" id="Capa_1" xmlns="http://www.w3.org/2000/svg" xmlns:xlink="http://www.w3.org/1999/xlink" 
	 width="800px" height="800px" viewBox="0 0 34.833 34.834"
	 xml:space="preserve">
<g>
	<path d="M7.713,22.775c0.078,0.266-0.073,0.543-0.338,0.621c-0.047,0.015-0.095,0.021-0.142,0.021
		c-0.216,0-0.416-0.143-0.479-0.357c-0.295-1-0.445-2.039-0.447-3.092c0-0.275,0.254-0.482,0.5-0.501c0.276,0,0.5,0.224,0.5,0.499
		C7.309,20.923,7.446,21.868,7.713,22.775z M7.083,17.496c0.047,0.014,0.094,0.02,0.14,0.02c0.217,0,0.417-0.142,0.48-0.359
		c0.266-0.913,0.661-1.782,1.175-2.584c0.149-0.233,0.082-0.542-0.151-0.691c-0.234-0.15-0.542-0.083-0.691,0.151
		c-0.566,0.883-1.001,1.84-1.293,2.845C6.665,17.141,6.817,17.418,7.083,17.496z M8.898,25.355c-0.15-0.231-0.459-0.299-0.691-0.147
		c-0.232,0.149-0.298,0.459-0.148,0.69c0.567,0.879,1.257,1.67,2.05,2.355c0.095,0.082,0.211,0.122,0.327,0.122
		c0.14,0,0.279-0.06,0.378-0.173c0.18-0.209,0.158-0.525-0.051-0.706C10.042,26.874,9.414,26.152,8.898,25.355z M21.401,10.853
		c0.867,0.393,1.672,0.907,2.394,1.528c0.096,0.081,0.211,0.121,0.326,0.121c0.141,0,0.28-0.059,0.379-0.174
		c0.181-0.209,0.158-0.525-0.054-0.705c-0.793-0.684-1.678-1.25-2.631-1.682c-0.252-0.115-0.549-0.002-0.662,0.249
		C21.041,10.442,21.151,10.739,21.401,10.853z M15.764,10.077c0.024,0,0.048-0.001,0.072-0.005c0.938-0.135,1.91-0.138,2.839-0.009
		c0.275,0.041,0.527-0.153,0.564-0.426c0.038-0.272-0.152-0.526-0.427-0.563c-1.022-0.142-2.092-0.14-3.122,0.01
		c-0.273,0.04-0.463,0.293-0.423,0.566C15.306,9.898,15.519,10.077,15.764,10.077z M10.403,12.544c0.117,0,0.234-0.041,0.329-0.123
		c0.719-0.627,1.521-1.146,2.382-1.543c0.251-0.115,0.361-0.413,0.245-0.663c-0.115-0.251-0.413-0.36-0.663-0.245
		c-0.949,0.438-1.831,1.008-2.622,1.697c-0.208,0.182-0.229,0.498-0.048,0.706C10.125,12.486,10.264,12.544,10.403,12.544z
		 M21.438,29.021c-0.865,0.396-1.78,0.666-2.724,0.802c-0.272,0.038-0.463,0.292-0.424,0.565c0.037,0.25,0.25,0.428,0.496,0.428
		c0.021,0,0.047,0,0.07-0.004c1.035-0.147,2.043-0.444,2.996-0.881c0.252-0.115,0.361-0.412,0.246-0.664
		C21.987,29.02,21.692,28.907,21.438,29.021z M27.767,19.425c-0.275,0-0.5,0.245-0.5,0.521c0,0.957-0.137,1.902-0.4,2.811
		c-0.078,0.266,0.072,0.543,0.338,0.621c0.047,0.016,0.094,0.021,0.142,0.021c0.217,0,0.416-0.143,0.479-0.359
		c0.293-1,0.441-2.04,0.441-3.092v-0.041C28.267,19.628,28.042,19.425,27.767,19.425z M15.876,29.827
		c-0.941-0.134-1.858-0.4-2.725-0.794c-0.251-0.115-0.547-0.004-0.662,0.248c-0.114,0.251-0.003,0.548,0.248,0.66
		c0.954,0.436,1.962,0.729,2.999,0.875c0.024,0.004,0.047,0.007,0.07,0.007c0.245,0,0.459-0.183,0.495-0.431
		C16.34,30.118,16.15,29.865,15.876,29.827z M26.855,17.098c0.062,0.217,0.264,0.356,0.479,0.356c0.047,0,0.096-0.007,0.144-0.021
		c0.267-0.08,0.416-0.357,0.336-0.623c-0.297-1.003-0.737-1.958-1.31-2.836c-0.149-0.231-0.461-0.297-0.692-0.147
		c-0.229,0.15-0.297,0.46-0.146,0.692C26.183,15.319,26.582,16.186,26.855,17.098z M26.376,25.188
		c-0.23-0.148-0.543-0.082-0.691,0.149c-0.516,0.8-1.141,1.521-1.859,2.146c-0.207,0.183-0.23,0.498-0.051,0.705
		c0.1,0.114,0.238,0.172,0.377,0.172c0.117,0,0.232-0.041,0.328-0.123c0.793-0.687,1.479-1.479,2.045-2.358
		C26.675,25.646,26.608,25.338,26.376,25.188z M21.925,20.93c0.217,0.371,0.324,0.786,0.324,1.243c0,0.546-0.166,1.05-0.494,1.511
		c-0.328,0.459-0.793,0.811-1.396,1.051c-0.219,0.088-0.477,0.16-0.77,0.216v1.84h-1.744v-1.695c-0.045,0-0.084,0.001-0.129,0.001
		h-0.991v1.694H14.98v-1.694h-2.66v-1.424h0.407c0.271,0,0.453-0.023,0.549-0.07c0.096-0.047,0.164-0.112,0.203-0.199
		c0.041-0.086,0.059-0.278,0.059-0.579v-5.742c0-0.304-0.019-0.499-0.059-0.583c-0.039-0.083-0.106-0.151-0.203-0.199
		c-0.096-0.049-0.279-0.075-0.549-0.075H12.32V14.8h2.66v-1.694h1.745V14.8h1.12v-1.694h1.744v1.817
		c0.256,0.048,0.492,0.11,0.69,0.192c0.511,0.208,0.904,0.508,1.181,0.898c0.274,0.392,0.412,0.821,0.412,1.289
		c0,0.339-0.072,0.662-0.219,0.97c-0.146,0.303-0.355,0.571-0.628,0.807c-0.274,0.234-0.637,0.427-1.086,0.58
		c0.481,0.123,0.853,0.258,1.106,0.406C21.416,20.27,21.708,20.559,21.925,20.93z M16.087,18.968h1.129
		c0.591,0,1.028-0.048,1.311-0.146c0.283-0.1,0.496-0.248,0.639-0.446c0.144-0.198,0.213-0.429,0.213-0.69
		c0-0.271-0.065-0.502-0.2-0.692c-0.136-0.193-0.333-0.329-0.587-0.41c-0.256-0.082-0.713-0.123-1.374-0.123h-1.129L16.087,18.968
		L16.087,18.968z M19.578,21.896c0-0.305-0.072-0.562-0.213-0.773c-0.144-0.21-0.355-0.371-0.642-0.479
		c-0.285-0.107-0.72-0.162-1.304-0.162h-1.332v2.229c0.006,0.314,0.017,0.499,0.037,0.555c0.024,0.066,0.064,0.114,0.122,0.145
		c0.057,0.025,0.209,0.04,0.46,0.04h0.75c0.438,0,0.799-0.04,1.086-0.123c0.287-0.081,0.533-0.249,0.731-0.507
		C19.478,22.564,19.578,22.258,19.578,21.896z M32.403,19.85c0,8.264-6.723,14.984-14.986,14.984S2.431,28.109,2.431,19.85
		c0-7.759,5.924-14.157,13.486-14.912V3h-0.305c-0.829,0-1.5-0.671-1.5-1.5s0.671-1.5,1.5-1.5h3.61c0.828,0,1.5,0.671,1.5,1.5
		S20.05,3,19.222,3h-0.305v1.938c2.613,0.261,5.026,1.203,7.072,2.636l1.312-1.312l-0.217-0.216c-0.586-0.585-0.586-1.536,0-2.121
		c0.586-0.586,1.535-0.586,2.121,0l2.553,2.553c0.587,0.585,0.587,1.536,0,2.121c-0.293,0.293-0.676,0.439-1.061,0.439
		s-0.768-0.146-1.061-0.439l-0.217-0.215l-1.156,1.157C30.823,12.229,32.403,15.854,32.403,19.85z M30.403,19.85
		c0-7.163-5.825-12.988-12.986-12.988c-7.16,0-12.986,5.826-12.986,12.988c0,7.158,5.826,12.984,12.986,12.984
		C24.578,32.834,30.403,27.008,30.403,19.85z"/>
</g>
</svg>